<svg xmlns="http://www.w3.org/2000/svg" width="64" height="64" viewBox="0 0 64 64">
    <g fill="none" fill-rule="evenodd">
        <g fill="#0054AD">
            <g>
                <path d="M32.075 19.067c.133 0 .268-.027.398-.083l1.616-.706c.088.266.194.53.304.794.026.063.044.126.071.188.14.317.293.625.457.925l-1.615.705c-.403.177-.626.588-.586 1.004.009.103.03.205.074.305.164.374.528.596.912.596.133 0 .268-.026.398-.083l1.947-.85c.964 1.184 2.149 2.142 3.491 2.788 1.227.59 2.502.887 3.753.887 1.068 0 2.119-.216 3.11-.649.195-.085.382-.184.567-.284.892-.481 1.673-1.133 2.322-1.923.602-.733 1.094-1.577 1.44-2.523.188-.516-.078-1.087-.594-1.275-.292-.106-.598-.064-.846.082-.19.113-.348.286-.43.511-.405 1.11-1.06 2.042-1.892 2.737-.413.346-.868.637-1.364.853-1.612.705-3.46.63-5.202-.207-.915-.44-1.742-1.065-2.45-1.83l2.593-1.133 3.047-1.331c.504-.22.733-.807.513-1.31-.109-.248-.307-.43-.54-.523-.24-.097-.515-.101-.77.01l-1.019.446-5.022 2.195c-.15-.26-.287-.531-.414-.808-.017-.039-.04-.073-.057-.112-.143-.326-.258-.657-.36-.988l6.83-2.984c.503-.22.732-.807.512-1.31-.22-.503-.805-.733-1.31-.512l-6.422 2.805c-.23-3.04 1.148-5.858 3.7-6.973 1.499-.657 3.23-.635 4.872.059.506.213 1.09-.024 1.303-.53.214-.505-.023-1.088-.53-1.302-2.15-.908-4.437-.925-6.443-.05-3.538 1.547-5.38 5.518-4.809 9.63l-1.954.854c-.504.22-.733.806-.513 1.31.163.372.529.595.912.595" transform="translate(-841.000000, -565.000000) translate(841.000000, 564.999938)"/>
                <path d="M57.679 57.405c0 2.358-1.92 4.275-4.279 4.275H6.321V28.888h40.568c.029-.012.056-.02.084-.032v.032H53.4c2.36 0 4.279 1.918 4.279 4.276v24.24zm-30.493-34.1c.593 1.192 1.311 2.287 2.142 3.263h-14.93l12.788-3.263zm8.909-19.83c1.796-.784 3.67-1.156 5.515-1.156 5.328 0 10.415 3.096 12.681 8.279 1.48 3.38 1.552 7.133.206 10.568-.83 2.118-2.14 3.956-3.815 5.402H32.608c-1.236-1.064-2.3-2.355-3.116-3.85-.187-.343-.365-.693-.524-1.057-.158-.363-.29-.73-.416-1.098-2.283-6.715.924-14.196 7.543-17.087zM53.9 26.594c1.15-1.349 2.092-2.883 2.758-4.582 1.573-4.011 1.487-8.395-.24-12.343-3.565-8.15-13.1-11.88-21.253-8.318-7.675 3.353-11.432 11.99-8.875 19.79L5.015 26.568 4 26.826V64h49.4c3.64 0 6.6-2.959 6.6-6.595V33.164c0-3.47-2.694-6.314-6.1-6.57z" transform="translate(-841.000000, -565.000000) translate(841.000000, 564.999938)"/>
                <path d="M51.673 43.158c-1.174 0-2.126.953-2.126 2.126 0 1.174.952 2.125 2.126 2.125 1.175 0 2.127-.95 2.127-2.125 0-1.173-.952-2.126-2.127-2.126" transform="translate(-841.000000, -565.000000) translate(841.000000, 564.999938)"/>
            </g>
        </g>
    </g>
</svg>
