<svg xmlns="http://www.w3.org/2000/svg" width="64" height="64" viewBox="0 0 64 64">
    <g fill="none" fill-rule="evenodd">
        <g fill="#0054AD">
            <g>
                <path d="M7.66 13.6h24.68c.696 0 1.26-.538 1.26-1.2 0-.662-.564-1.2-1.26-1.2H7.66c-.696 0-1.26.538-1.26 1.2 0 .662.564 1.2 1.26 1.2M33.6 18.8c0-.662-.564-1.2-1.26-1.2H7.66c-.696 0-1.26.538-1.26 1.2 0 .662.564 1.2 1.26 1.2h24.68c.696 0 1.26-.538 1.26-1.2M20.311 27.2c.712 0 1.289-.538 1.289-1.2 0-.662-.577-1.2-1.289-1.2H7.69c-.712 0-1.289.538-1.289 1.2 0 .662.577 1.2 1.289 1.2H20.31z" transform="translate(-535.000000, -565.000000) translate(535.000000, 565.000000)"/>
                <path d="M49.195 45.553v-5.111H31.344V30.23h17.851V25.12l10.32 10.217-10.32 10.216zM37.556 55.787L32.76 52.89l-5.993 3.616-5.993-3.616-5.993 3.616-5.992-3.616-4.798 2.896V5.567h33.566v22.296h-8.602v14.945h8.603v12.979zm11.288-34.36c-.342-.34-.855-.44-1.302-.257-.446.184-.737.615-.737 1.094v5.599h-6.858V3.2H1.6V60l7.188-4.337 5.992 3.616 5.993-3.616 5.993 3.616 5.993-3.616L39.947 60V42.808h6.858v5.6c0 .48.291.91.737 1.094.148.06.303.09.458.09.31 0 .616-.12.844-.347L62.05 36.173c.467-.463.467-1.21 0-1.673L48.844 21.427z" transform="translate(-535.000000, -565.000000) translate(535.000000, 565.000000)"/>
                <path d="M15.924 34.933c1.393 0 2.739.593 3.786 1.67.417.427 1.11.444 1.549.04.438-.406.457-1.08.04-1.509-1.465-1.505-3.374-2.334-5.375-2.334-3.474 0-6.425 2.501-7.49 5.965H6.695c-.604 0-1.095.478-1.095 1.067 0 .588.49 1.066 1.095 1.066h1.341c-.016.233-.032.465-.032.702 0 .23.016.458.031.684h-1.34c-.604 0-1.095.478-1.095 1.066 0 .59.49 1.067 1.095 1.067h1.732C9.49 47.89 12.444 50.4 15.924 50.4c1.99 0 3.892-.821 5.355-2.314.418-.426.402-1.1-.035-1.508-.439-.406-1.13-.39-1.549.035-1.046 1.067-2.385 1.654-3.771 1.654-2.294 0-4.271-1.58-5.186-3.85h5.151c.605 0 1.095-.478 1.095-1.067 0-.588-.49-1.066-1.095-1.066h-5.665c-.02-.225-.03-.454-.03-.684 0-.237.012-.471.033-.702h6.428c.605 0 1.095-.478 1.095-1.066 0-.589-.49-1.067-1.095-1.067h-5.91c.919-2.26 2.891-3.832 5.179-3.832" transform="translate(-535.000000, -565.000000) translate(535.000000, 565.000000)"/>
            </g>
        </g>
    </g>
</svg>
