<svg xmlns="http://www.w3.org/2000/svg" width="64" height="64" viewBox="0 0 64 64">
    <g fill="none" fill-rule="evenodd">
        <g fill="#0054AD">
            <g>
                <path d="M10.26 19.439c-.549 0-.996.448-.998 1.002-.001.555.444 1.007.996 1.008l2.647.009c1.351 2.917 4.896 5.019 9.06 5.035h.048c2.324 0 4.562-.655 6.305-1.847.457-.311.574-.937.265-1.396-.31-.46-.932-.58-1.387-.267-1.426.974-3.283 1.522-5.224 1.499-2.939-.011-5.494-1.237-6.778-3.018l6.728.02h.002c.55 0 .997-.449.999-1.003 0-.555-.444-1.007-.997-1.008l-7.574-.022c-.028-.195-.043-.391-.043-.591 0-.217.022-.432.057-.645l8.528.02h.002c.551 0 .997-.449.999-1.003 0-.556-.445-1.007-.996-1.008l-7.655-.018c.157-.208.327-.411.52-.606 1.444-1.451 3.756-2.317 6.19-2.317h.013c1.954.003 3.816.55 5.247 1.542.452.313 1.074.2 1.388-.258.312-.457.199-1.083-.256-1.399-1.759-1.22-4.023-1.893-6.377-1.896h-.016c-2.994 0-5.764 1.058-7.6 2.905-.617.62-1.093 1.303-1.434 2.024l-2.655-.006h-.003c-.55 0-.997.448-.999 1.003-.001.555.445 1.006.996 1.008l2.088.004c-.022.215-.034.432-.034.65 0 .198.018.39.038.585l-2.086-.006h-.003z" transform="translate(-229.000000, -565.000000) translate(228.999933, 565.000000)"/>
                <path d="M58.693 55.916l-6.618-6.626c-.168-.168-.26-.39-.26-.627s.092-.46.26-.627l1.57-1.571c.174-.175.404-.264.634-.264.23 0 .46.088.635.263l6.61 6.618-2.83 2.834zm-9.446-13.945l-1.604-1.606c-.455-.457-1.194-.457-1.647.005-.454.459-.451 1.202.006 1.659l1.601 1.604c-1.564 1.271-3.43 2.064-5.425 2.298-.41.047-.826.08-1.246.08-.405 0-.806-.03-1.203-.075-.538-.06-1.065-.166-1.58-.306-.876-.238-1.714-.588-2.5-1.042-.807-.467-1.562-1.035-2.237-1.715-.176-.177-.335-.365-.497-.55-.53-.614-.996-1.273-1.37-1.978-.578-1.087-.952-2.27-1.128-3.504-.072-.507-.121-1.02-.121-1.542 0-.288.019-.574.04-.86.107-1.342.461-2.63 1.036-3.82-.91.301-1.85.553-2.811.766-.366 1.179-.562 2.415-.585 3.682-6.84 1.518-14.847.652-20.337-2.62-3.424-2.04-5.31-4.686-5.31-7.45v-.066c1.045 1.276 2.423 2.45 4.115 3.474 4.12 2.503 9.538 3.757 14.944 3.757 2.436 0 4.863-.267 7.173-.777v-.002c.96-.212 1.898-.464 2.807-.764.512-1.057 1.19-2.037 2.04-2.893.503-.507 1.045-.949 1.615-1.332.065-.044.133-.084.2-.126l.025-.017-.022.017c1.51-.967 3.206-1.51 4.93-1.637.055-.004.11-.005.163-.008l.18-.008c.144-.006.289-.021.433-.021.48 0 .958.044 1.434.109l.117.017c2.186.321 4.292 1.315 5.97 3.006 2.01 2.023 3.116 4.712 3.116 7.573 0 2.456-.821 4.782-2.322 6.672zm-14.4 9.468c-7.5 4.47-19.708 4.47-27.208 0-3.424-2.04-5.31-4.687-5.31-7.451v-.294c1.047 1.263 2.427 2.422 4.123 3.433 4.078 2.43 9.434 3.645 14.791 3.645 5.243 0 10.478-1.172 14.522-3.5.89.39 1.82.678 2.78.858-.907 1.25-2.164 2.395-3.698 3.309zM1.793 24.226c.226.146.394.37.477.632-.168-.208-.327-.419-.477-.632zm.537 13.138c1.046 1.263 2.426 2.422 4.122 3.433 4.078 2.43 9.434 3.645 14.791 3.645 3.203 0 6.4-.444 9.33-1.313.365.488.754.962 1.191 1.403.504.506 1.048.954 1.616 1.366-7.55 3.662-18.712 3.399-25.74-.79-3.425-2.04-5.31-4.686-5.31-7.45v-.294zm0-6.331c1.046 1.263 2.426 2.422 4.122 3.433 4.078 2.43 9.434 3.645 14.791 3.645 2.34 0 4.671-.246 6.903-.709.206 1.28.596 2.511 1.16 3.663-7.109 1.953-15.815 1.199-21.667-2.287-3.424-2.04-5.31-4.687-5.31-7.451v-.294zM7.643 11.3l.001-.001c3.748-2.259 8.666-3.388 13.584-3.388 4.931 0 9.862 1.136 13.61 3.406 3.434 2.087 5.323 4.794 5.318 7.622-.002 1.184-.34 2.344-.979 3.444-.04.069-.09.142-.14.215.045-.072.094-.143.136-.215-2.713.37-5.333 1.59-7.413 3.684-.786.79-1.445 1.673-1.996 2.612-7.183 2.112-16.136 1.35-22.118-2.284-3.434-2.079-5.321-4.768-5.316-7.573.005-2.795 1.891-5.466 5.313-7.522zm55.772 40.367L56.557 44.8c-1.243-1.245-3.258-1.253-4.516-.032l-1.132-1.134c1.934-2.339 2.99-5.254 2.99-8.336 0-3.487-1.35-6.766-3.798-9.232-2.132-2.147-4.83-3.377-7.615-3.713v-3.41c0-.033-.003-.065-.004-.098-.033-3.648-2.315-7.031-6.44-9.539-8.15-4.935-21.426-4.944-29.594-.02C2.296 11.78.006 15.167 0 18.818l.002.046L0 18.88v6.115c0 .052.005.103.006.155 0 .02-.006.04-.006.06v6.116c0 .052.005.103.006.154 0 .02-.006.04-.006.061v6.115c0 .052.005.103.006.155 0 .02-.006.04-.006.06v6.116c0 3.627 2.291 6.99 6.452 9.47 4.078 2.43 9.434 3.645 14.791 3.645 5.357 0 10.713-1.215 14.791-3.645 2.296-1.368 4.064-3.147 5.165-5.115 2.984-.06 5.801-1.127 8.066-3.046l1.124 1.127c-.58.606-.904 1.396-.904 2.239 0 .866.336 1.679.947 2.291l6.858 6.866c.387.387.895.58 1.403.58.509 0 1.017-.194 1.404-.58l3.32-3.323c.376-.378.584-.881.583-1.415 0-.535-.208-1.038-.585-1.415z" transform="translate(-229.000000, -565.000000) translate(228.999933, 565.000000)"/>
                <path d="M34.866 29.22c-1.91 1.912-2.816 4.654-2.424 7.334.06.416.416.715.822.715.04 0 .081-.003.122-.009.455-.067.77-.493.702-.95-.32-2.19.39-4.34 1.952-5.903.325-.326.327-.857.003-1.185-.325-.327-.851-.33-1.177-.003M34.8 38.506c-.214-.41-.718-.567-1.124-.35-.407.214-.563.721-.35 1.13.131.25.276.495.432.733.16.244.425.376.695.376.158 0 .317-.045.458-.14.383-.254.489-.775.236-1.16-.127-.191-.243-.388-.347-.589" transform="translate(-229.000000, -565.000000) translate(228.999933, 565.000000)"/>
            </g>
        </g>
    </g>
</svg>
