<svg xmlns="http://www.w3.org/2000/svg" width="64" height="64" viewBox="0 0 64 64">
    <g fill="none" fill-rule="evenodd">
        <g fill="#0054AD">
            <g>
                <path d="M31.6 61.429c-12.531 0-18.993-2.885-18.993-4.116 0-.84 3.763-3.103 13.036-3.873l.161.184c.06.07.118.135.177.202.14.16.275.315.406.461l.161.182.365.407.133.147.326.357.095.102c.112.121.211.23.303.327.01.013.024.027.035.038.31.33.494.519.514.539.87.887 2.034 1.376 3.276 1.376h.001c1.242 0 2.406-.487 3.277-1.375.02-.02.204-.208.512-.537l.042-.045.297-.32.101-.11.315-.344.15-.166.345-.385.179-.2.385-.437.202-.232.15-.17c9.276.768 13.042 3.032 13.042 3.872 0 1.231-6.462 4.116-18.993 4.116M12.605 25.125c-1.454-7.512 1.14-12.584 3.57-15.516 3.654-4.407 9.418-7.038 15.42-7.038 6 0 11.765 2.63 15.42 7.036 2.434 2.933 5.03 8.005 3.584 15.516-1.99 10.232-9.992 20.776-14.585 26.151-1.763 2.064-2.976 3.304-2.986 3.315-.382.389-.89.602-1.432.602-.542 0-1.05-.213-1.43-.602-.012-.012-1.223-1.251-2.985-3.315-4.59-5.375-12.586-15.918-14.576-26.15m26.944 25.93c4.828-5.933 11.697-15.74 13.585-25.444 1.635-8.497-1.342-14.283-4.128-17.64C44.865 2.98 38.356 0 31.596 0 24.83 0 18.323 2.98 14.185 7.972c-2.784 3.359-5.758 9.144-4.114 17.64 1.886 9.703 8.752 19.509 13.577 25.444-5.025.566-13.622 2.14-13.622 6.257C10.026 61.907 21.209 64 31.6 64c10.39 0 21.574-2.093 21.574-6.687 0-4.118-8.6-5.691-13.625-6.258" transform="translate(-1147.000000, -565.000000) translate(1147.000000, 565.000000)"/>
                <path d="M21.607 24.326V18.95H28.9v-7.264h5.4v7.264h7.292v5.377H34.3V31.59h-5.4V24.326h-7.293zm13.983 9.835c.713 0 1.291-.576 1.291-1.285v-5.978h6.002c.713 0 1.29-.576 1.29-1.286v-7.948c0-.71-.577-1.286-1.29-1.286h-6.002V10.4c0-.71-.578-1.286-1.29-1.286H27.61c-.713 0-1.29.576-1.29 1.286v5.978h-6.004c-.713 0-1.29.575-1.29 1.286v7.948c0 .71.577 1.286 1.29 1.286h6.003v5.978c0 .71.578 1.285 1.29 1.285h7.981z" transform="translate(-1147.000000, -565.000000) translate(1147.000000, 565.000000)"/>
            </g>
        </g>
    </g>
</svg>
