<svg xmlns="http://www.w3.org/2000/svg" width="176" height="64" viewBox="0 0 176 64">
    <g fill="none" fill-rule="evenodd">
        <g>
            <g>
                <path fill="#0054AD" d="M63.873 22.081L63.873 19.538 72.359 9.238 64.11 9.238 64.11 6.803 75.706 6.803 75.706 9.259 67.112 19.624 75.814 19.624 75.814 22.081 63.873 22.081M87.382 16.823c0 3.232-2.31 5.58-5.463 5.58-3.131 0-5.442-2.348-5.442-5.58 0-3.211 2.31-5.56 5.442-5.56 3.153 0 5.463 2.349 5.463 5.56m-2.526 0c0-2.177-1.382-3.297-2.937-3.297-1.533 0-2.937 1.12-2.937 3.297 0 2.176 1.404 3.34 2.937 3.34 1.555 0 2.937-1.142 2.937-3.34M95.085 14.065c-.28-.043-.561-.065-.82-.065-1.944 0-2.83 1.12-2.83 3.081v5h-2.504V11.586h2.44v1.681c.497-1.142 1.663-1.81 3.045-1.81.302 0 .561.043.67.065v2.543M97.865 22.06c.173 1.292 1.187 2.262 2.634 2.262 1.987 0 2.98-1.013 2.98-3.146v-1.1c-.454.82-1.512 1.53-3.045 1.53-2.807 0-4.858-2.154-4.858-5.106 0-2.802 1.965-5.107 4.858-5.107 1.642 0 2.656.667 3.11 1.53v-1.337h2.418v9.503c0 2.802-1.446 5.41-5.398 5.41-2.786 0-4.73-1.725-5.01-3.836l2.31-.604zm5.679-5.56c0-1.789-1.145-2.953-2.7-2.953-1.597 0-2.742 1.164-2.742 2.953 0 1.831 1.101 2.973 2.743 2.973 1.598 0 2.699-1.163 2.699-2.973zM122.827 19.086c-.561 1.831-2.224 3.318-4.75 3.318-2.85 0-5.377-2.07-5.377-5.624 0-3.319 2.461-5.517 5.118-5.517 3.239 0 5.139 2.133 5.139 5.452 0 .41-.043.754-.065.797h-7.687c.065 1.595 1.317 2.737 2.872 2.737 1.511 0 2.289-.797 2.634-1.832l2.116.669zm-2.397-3.405c-.043-1.228-.863-2.328-2.591-2.328-1.576 0-2.483 1.207-2.57 2.328h5.161zM127.037 22.08h-2.506V11.587h2.44v1.4c.692-1.206 1.944-1.701 3.11-1.701 2.57 0 3.8 1.853 3.8 4.159v6.637h-2.504v-6.206c0-1.294-.583-2.328-2.16-2.328-1.425 0-2.18 1.1-2.18 2.478v6.056M63.873 41.726L63.873 39.183 72.359 28.882 64.11 28.882 64.11 26.447 75.706 26.447 75.706 28.904 67.112 39.269 75.814 39.269 75.814 41.726 63.873 41.726M86.978 38.73c-.56 1.832-2.224 3.319-4.75 3.319-2.85 0-5.377-2.069-5.377-5.624 0-3.32 2.462-5.517 5.118-5.517 3.239 0 5.139 2.134 5.139 5.452 0 .41-.043.754-.065.797h-7.687c.065 1.595 1.317 2.737 2.872 2.737 1.512 0 2.289-.797 2.634-1.832l2.116.668zm-2.396-3.404c-.043-1.229-.864-2.328-2.592-2.328-1.576 0-2.483 1.207-2.57 2.328h5.162zM94.494 35.67L98.898 41.726 95.832 41.726 92.745 37.438 91.449 38.795 91.449 41.726 88.965 41.726 88.965 26.124 91.449 26.124 91.449 35.476 95.487 31.231 98.812 31.231 94.494 35.67M109.48 38.73c-.561 1.832-2.224 3.319-4.75 3.319-2.851 0-5.378-2.069-5.378-5.624 0-3.32 2.462-5.517 5.118-5.517 3.24 0 5.14 2.134 5.14 5.452 0 .41-.044.754-.065.797h-7.688c.065 1.595 1.317 2.737 2.872 2.737 1.512 0 2.29-.797 2.635-1.832l2.116.668zm-2.397-3.404c-.043-1.229-.864-2.328-2.591-2.328-1.577 0-2.483 1.207-2.57 2.328h5.161zM117.621 33.71c-.28-.044-.561-.065-.82-.065-1.944 0-2.829 1.12-2.829 3.081v5h-2.505V31.23h2.44v1.681c.497-1.142 1.663-1.81 3.045-1.81.302 0 .561.043.67.065v2.542M121.638 41.726h-2.505V26.124h2.505v6.12c.712-.927 1.9-1.315 3.001-1.315 2.592 0 3.844 1.854 3.844 4.16v6.637h-2.505V35.52c0-1.293-.583-2.328-2.16-2.328-1.381 0-2.137 1.035-2.18 2.37v6.164M140.295 38.73c-.561 1.832-2.224 3.319-4.75 3.319-2.85 0-5.377-2.069-5.377-5.624 0-3.32 2.461-5.517 5.118-5.517 3.239 0 5.139 2.134 5.139 5.452 0 .41-.043.754-.065.797h-7.687c.065 1.595 1.317 2.737 2.871 2.737 1.512 0 2.29-.797 2.635-1.832l2.116.668zm-2.397-3.404c-.042-1.229-.863-2.328-2.591-2.328-1.576 0-2.483 1.207-2.57 2.328h5.161zM143.513 25.909c.907 0 1.641.732 1.641 1.638 0 .905-.734 1.616-1.64 1.616-.886 0-1.62-.711-1.62-1.616 0-.906.734-1.638 1.62-1.638zm-1.23 15.817h2.483V31.23h-2.483v10.495zM157.183 39.808c0 .948.086 1.745.107 1.917h-2.397c-.043-.236-.107-.926-.107-1.357-.497.883-1.598 1.616-3.088 1.616-3.024 0-5.053-2.37-5.053-5.538 0-3.017 2.051-5.495 5.01-5.495 1.835 0 2.764.84 3.087 1.509v-6.336h2.44v13.684zm-5.204-.022c1.64 0 2.785-1.357 2.785-3.361 0-2.005-1.123-3.254-2.764-3.254-1.641 0-2.85 1.27-2.85 3.275 0 2.004 1.122 3.34 2.829 3.34zM67.018 51.508c1.85 0 2.931 1.093 2.931 2.624 0 1.039-.602 1.777-1.452 2.091 1.11.274 1.753 1.258 1.753 2.338 0 1.53-1.218 2.637-2.999 2.637h-3.397v-9.69h3.164zm-.15 4.237c1.082 0 1.725-.642 1.725-1.544 0-.916-.67-1.517-1.78-1.517h-1.616v3.06h1.67zm.191 4.278c1.082 0 1.822-.602 1.822-1.545 0-.93-.59-1.585-1.767-1.585h-1.917v3.13h1.862zM77.543 59.326c-.37 1.161-1.425 2.077-2.958 2.077-1.767 0-3.315-1.285-3.315-3.513 0-2.063 1.493-3.47 3.15-3.47 2.027 0 3.164 1.393 3.164 3.443 0 .164-.014.329-.027.41h-4.958c.027 1.176.876 1.996 1.986 1.996 1.068 0 1.602-.588 1.849-1.326l1.11.383zm-1.301-2.091c-.028-.944-.644-1.682-1.808-1.682-1.082 0-1.74.834-1.794 1.682h3.602zM80.714 54.624h1.425v1.162h-1.425v3.417c0 .601.247.902.918.902.164 0 .397-.028.507-.055v1.093c-.11.042-.439.123-.877.123-1.123 0-1.836-.683-1.836-1.872v-3.608h-1.26v-1.162h.357c.712 0 1.013-.437 1.013-1.011v-1.066h1.178v2.077M89.113 59.326c-.37 1.161-1.424 2.077-2.958 2.077-1.767 0-3.315-1.285-3.315-3.513 0-2.063 1.493-3.47 3.15-3.47 2.027 0 3.164 1.393 3.164 3.443 0 .164-.014.329-.027.41h-4.958c.027 1.176.876 1.996 1.986 1.996 1.068 0 1.602-.588 1.849-1.326l1.109.383zm-1.301-2.091c-.027-.944-.644-1.682-1.808-1.682-1.082 0-1.74.834-1.794 1.682h3.602zM94.192 55.922c-.191-.027-.383-.04-.561-.04-1.082 0-1.808.574-1.808 2.022v3.294h-1.288v-6.574h1.26v1.148c.48-1.011 1.301-1.257 1.972-1.257.179 0 .357.027.425.04v1.367M99.48 51.207c.52 0 .93.41.93.93 0 .505-.41.915-.93.915-.507 0-.918-.41-.918-.915 0-.52.41-.93.918-.93zm-.63 9.991h1.273v-6.574H98.85v6.574zM103.19 61.198h-1.287v-6.574h1.26v.943c.48-.82 1.26-1.134 2.027-1.134 1.575 0 2.355 1.134 2.355 2.597v4.168h-1.287v-3.95c0-.916-.383-1.654-1.534-1.654-1.013 0-1.534.807-1.534 1.805v3.8M112.888 54.624h1.288v7.34c0 1.189-.685 2.036-1.822 2.036-.493 0-.685-.068-.767-.095v-1.08c.068.013.219.04.411.04.67 0 .89-.354.89-.956v-7.285zm.63-3.444c.52 0 .931.41.931.929 0 .506-.41.916-.931.916-.507 0-.918-.41-.918-.916 0-.52.411-.93.918-.93zM122.217 57.904c0 2.01-1.397 3.5-3.37 3.5-1.972 0-3.369-1.49-3.369-3.5 0-1.995 1.397-3.485 3.37-3.485 1.972 0 3.369 1.49 3.369 3.485m-1.315 0c0-1.517-.959-2.337-2.054-2.337-1.096 0-2.055.82-2.055 2.337 0 1.531.959 2.351 2.055 2.351 1.095 0 2.054-.82 2.054-2.35M125.963 61.403c-1.534 0-2.465-1.148-2.465-2.638v-4.141h1.288v3.95c0 .902.41 1.695 1.492 1.695 1.041 0 1.561-.684 1.561-1.682v-3.963h1.288v5.357c0 .52.041.984.068 1.217h-1.232c-.027-.15-.055-.52-.055-.792-.356.683-1.178.997-1.945.997M136.069 54.624L137.781 59.571 139.233 54.624 140.589 54.624 138.452 61.198 137.124 61.198 135.37 56.196 133.658 61.198 132.303 61.198 130.139 54.624 131.549 54.624 133.029 59.571 134.74 54.624 136.069 54.624M145.178 61.198v-9.895h1.274v4.25c.315-.587 1.082-1.12 2.177-1.12 2 0 3.028 1.53 3.028 3.444 0 1.954-1.11 3.499-3.068 3.499-.972 0-1.726-.424-2.137-1.135v.957h-1.274zm3.219-5.63c-1.137 0-1.959.888-1.959 2.309 0 1.421.822 2.35 1.959 2.35 1.178 0 1.945-.929 1.945-2.35s-.754-2.31-1.945-2.31zM155.426 61.403c-1.533 0-2.465-1.148-2.465-2.638v-4.141h1.288v3.95c0 .902.41 1.695 1.492 1.695 1.041 0 1.562-.684 1.562-1.682v-3.963h1.287v5.357c0 .52.041.984.069 1.217h-1.233c-.027-.15-.055-.52-.055-.792-.356.683-1.178.997-1.945.997M162.771 61.403c-1.534 0-2.465-1.148-2.465-2.638v-4.141h1.287v3.95c0 .902.411 1.695 1.493 1.695 1.04 0 1.561-.684 1.561-1.682v-3.963h1.288v5.357c0 .52.041.984.069 1.217h-1.233c-.028-.15-.055-.52-.055-.792-.356.683-1.178.997-1.945.997M171.384 55.922c-.192-.027-.384-.04-.562-.04-1.082 0-1.807.574-1.807 2.022v3.294h-1.288v-6.574h1.26v1.148c.48-1.011 1.301-1.257 1.972-1.257.178 0 .356.027.425.04v1.367M174.575 54.624H176v1.162h-1.425v3.417c0 .601.247.902.918.902.164 0 .397-.028.507-.055v1.093c-.11.042-.439.123-.877.123-1.123 0-1.836-.683-1.836-1.872v-3.608h-1.26v-1.162h.357c.712 0 1.013-.437 1.013-1.011v-1.066h1.178v2.077M16.058 49.44c-.489 0-.709-.317-.489-.756l11.243-25.61c.172-.439-.048-.756-.489-.756H14.86s-.66 0-.39-.707l2.737-6.293c.17-.44.611-.756 1.197-.756h12.173L36.809.61C34.903.22 32.874 0 30.796 0 13.761-.048 0 13.684 0 30.587 0 47.05 13.003 60.44 29.28 61.22l5.231-11.83-18.453.05" transform="translate(-120.000000, -8.000000) translate(120.000000, 8.000000)"/>
                <path fill="#80DB00" d="M52.55 33.977H42.185c-.489 0-.709-.318-.489-.757L53.014 7.561c.22-.438-.05-.756-.49-.756L34.04 6.802l-3.493 7.76h8.848c.518-.025.738.292.518.731l-11.365 25.66c-.171.316-.05.61.17.707.099.049.22.049.319.049H49.2c.489 0 .977-.39 1.148-.83l2.738-6.146c.171-.39-.049-.756-.538-.756" transform="translate(-120.000000, -8.000000) translate(120.000000, 8.000000)"/>
            </g>
        </g>
    </g>
</svg>
